<?xml version="1.0" encoding="UTF-8" standalone="no"?>
<svg
   width="24"
   height="24"
   viewBox="0 0 24 24"
   fill="currentColor"
   class="icon icon-tabler icons-tabler-filled icon-tabler-confetti"
   version="1.1"
   id="svg2"
   sodipodi:docname="confetti.svg"
   inkscape:version="1.4.2 (ebf0e940d0, 2025-05-08)"
   xmlns:inkscape="http://www.inkscape.org/namespaces/inkscape"
   xmlns:sodipodi="http://sodipodi.sourceforge.net/DTD/sodipodi-0.dtd"
   xmlns="http://www.w3.org/2000/svg"
   xmlns:svg="http://www.w3.org/2000/svg">
  <defs
     id="defs2" />
  <sodipodi:namedview
     id="namedview2"
     pagecolor="#ffffff"
     bordercolor="#000000"
     borderopacity="0.25"
     inkscape:showpageshadow="2"
     inkscape:pageopacity="0.0"
     inkscape:pagecheckerboard="0"
     inkscape:deskcolor="#d1d1d1"
     inkscape:zoom="41.708333"
     inkscape:cx="12"
     inkscape:cy="12"
     inkscape:window-width="2048"
     inkscape:window-height="1252"
     inkscape:window-x="0"
     inkscape:window-y="0"
     inkscape:window-maximized="1"
     inkscape:current-layer="svg2" />
  <path
     stroke="none"
     d="M0 0h24v24H0z"
     fill="none"
     id="path1" />
  <path
     d="M 2.1599225,3.3226735 A 1.1578535,1.1573127 0 0 1 3.3177761,2.1653608 1.1578535,1.1573127 0 0 1 5.6253783,2.0299552 l 0.00811,0.1354056 a 1.1578535,1.1573127 0 0 1 0.1354688,2.3065241 l -0.1354688,0.0081 a 1.1578536,1.1573127 0 1 1 -2.3157072,0 A 1.1578535,1.1573127 0 0 1 2.1599274,3.3226735 M 10.878564,1.8841338 A 1.1578535,1.1573127 0 1 1 13.1248,2.4465877 L 12.545873,4.7612131 A 1.1578535,1.1573127 0 1 1 10.299638,4.1987592 Z m 7.491313,1.4385397 A 1.1578535,1.1573127 0 0 1 19.52773,2.1653608 1.1578535,1.1573127 0 0 1 21.835333,2.0299552 l 0.0081,0.1354056 a 1.1578535,1.1573127 0 0 1 0.135469,2.3065241 l -0.135469,0.0081 a 1.1578538,1.1573129 0 0 1 -2.315707,0 1.1578535,1.1573127 0 0 1 -1.157853,-1.1573126 M 8.1691839,8.2910168 15.714914,15.834381 a 1.1578535,1.1573127 0 0 1 -0.335778,1.871374 L 4.2950058,22.782886 A 2.3157072,2.3146254 0 0 1 1.2139573,19.713693 L 6.2969333,8.6266375 A 1.1578535,1.1573127 0 0 1 8.1680248,8.2910168 M 16.87161,7.1337041 a 1.1578535,1.1573127 0 0 1 0,1.6364402 L 15.713756,9.9274569 A 1.1578535,1.1573127 0 0 1 14.076552,8.2910168 l 1.157852,-1.1573127 a 1.1578535,1.1573127 0 0 1 1.637206,0 m 4.689306,3.7462209 a 1.1578535,1.1573127 0 0 1 0.562717,2.245187 l -2.315706,0.578656 A 1.1578535,1.1573127 0 0 1 19.24521,11.458581 Z m -3.191043,8.645126 a 1.1578535,1.1573127 0 0 1 1.157852,-1.157313 1.1578535,1.1573127 0 0 1 2.307604,-0.135405 l 0.0081,0.135405 a 1.1578535,1.1573127 0 0 1 0.135469,2.306524 l -0.135469,0.0081 a 1.1578538,1.1573129 0 0 1 -2.315707,0 1.1578535,1.1573127 0 0 1 -1.157853,-1.157312"
     id="path2"
     style="stroke-width:1.15759" />
</svg>
